# xmcd
#
# Track frame offsets:
#	150
#	18385
#	35727
#	56994
#	78316
#	93346
#	107432
#	121716
#	136258
#	153672
#	166668
#	178337
#	192436
#
# Disc length: 2802 seconds
#
# Revision: 1
# Processed by: cddbd v1.5.2PL0 Copyright (c) Steve Scherf et al.
# Submitted via: EasyCDDAExtractor 9.1.3.1
#
DISCID=a70af00d
DTITLE=Fiona Boyes And The Fortune Tellers - Lucky 13
DYEAR=2006
DGENRE=Blues
TTITLE0=Chicken Wants Corn
TTITLE1=Celebrate The Curves
TTITLE2=Good Lord Made You So
TTITLE3=Stranger In Your Eyes
TTITLE4=You Gonna Miss Me
TTITLE5=High Cotton
TTITLE6=Pigmeat Lover
TTITLE7=Hold Me
TTITLE8=Red Hot Kisses
TTITLE9=Big Bigger Biggest
TTITLE10=Rambling Man Blues
TTITLE11=Rockabilly On The Radio
TTITLE12=Homesick Blues
EXTD=www.yellowdogrecords.com/fionaboyes
EXTT0=
EXTT1=
EXTT2=
EXTT3=
EXTT4=
EXTT5=
EXTT6=
EXTT7=
EXTT8=
EXTT9=
EXTT10=
EXTT11=
EXTT12=
PLAYORDER=
